<svg width="163" height="42" viewBox="0 0 163 42" fill="none" xmlns="http://www.w3.org/2000/svg">
<g clip-path="url(#clip0_139_10)">
<path d="M70.6307 16.5C70.4354 15.9022 70.1779 15.3666 69.8583 14.8931C69.5446 14.4137 69.1688 14.0053 68.7308 13.668C68.2988 13.3306 67.8075 13.0732 67.2571 12.8956C66.7067 12.718 66.103 12.6293 65.446 12.6293C64.3688 12.6293 63.3893 12.9074 62.5075 13.4638C61.6256 14.0201 60.9242 14.8398 60.4034 15.9229C59.8826 17.006 59.6222 18.3348 59.6222 19.9091C59.6222 21.4834 59.8855 22.8121 60.4123 23.8952C60.939 24.9783 61.6522 25.7981 62.5518 26.3544C63.4515 26.9107 64.4635 27.1889 65.5881 27.1889C66.6297 27.1889 67.5471 26.967 68.3402 26.5231C69.1392 26.0733 69.7607 25.44 70.2045 24.6232C70.6544 23.8005 70.8793 22.8329 70.8793 21.7202L71.554 21.8622H66.0852V19.9091H73.0099V21.8622C73.0099 23.3596 72.6903 24.6617 72.0511 25.7685C71.4179 26.8752 70.5419 27.7334 69.4233 28.343C68.3106 28.9467 67.0322 29.2486 65.5881 29.2486C63.9782 29.2486 62.5637 28.8698 61.3445 28.1122C60.1312 27.3546 59.1842 26.2775 58.5036 24.8807C57.8288 23.4839 57.4915 21.8267 57.4915 19.9091C57.4915 18.4709 57.6838 17.1777 58.0685 16.0295C58.4592 14.8754 59.0096 13.8929 59.7198 13.082C60.43 12.2712 61.2705 11.6497 62.2411 11.2177C63.2118 10.7856 64.2801 10.5696 65.446 10.5696C66.4048 10.5696 67.2985 10.7146 68.1271 11.0046C68.9616 11.2887 69.7044 11.6941 70.3555 12.2209C71.0124 12.7417 71.5599 13.3661 71.9979 14.0941C72.4358 14.8162 72.7377 15.6181 72.9034 16.5H70.6307ZM76.4967 29V15.3636H78.5209V17.4233H78.6629C78.9115 16.7486 79.3613 16.2011 80.0123 15.7809C80.6634 15.3607 81.3973 15.1506 82.214 15.1506C82.3679 15.1506 82.5603 15.1535 82.7911 15.1594C83.0219 15.1654 83.1965 15.1742 83.3149 15.1861V17.3168C83.2439 17.299 83.0811 17.2724 82.8266 17.2369C82.578 17.1954 82.3147 17.1747 82.0365 17.1747C81.3736 17.1747 80.7818 17.3138 80.2609 17.592C79.746 17.8642 79.3376 18.243 79.0358 18.7283C78.7398 19.2077 78.5919 19.7552 78.5919 20.3707V29H76.4967ZM91.1008 29.2841C89.7868 29.2841 88.6534 28.9941 87.7006 28.4141C86.7536 27.8281 86.0226 27.0114 85.5077 25.9638C84.9987 24.9103 84.7442 23.6851 84.7442 22.2884C84.7442 20.8916 84.9987 19.6605 85.5077 18.5952C86.0226 17.5239 86.7388 16.6894 87.6562 16.0916C88.5795 15.4879 89.6566 15.1861 90.8877 15.1861C91.5979 15.1861 92.2993 15.3045 92.9917 15.5412C93.6842 15.7779 94.3145 16.1626 94.8827 16.6953C95.4509 17.2221 95.9037 17.9205 96.241 18.7905C96.5784 19.6605 96.7471 20.7318 96.7471 22.0043V22.892H86.2357V21.081H94.6164C94.6164 20.3116 94.4625 19.625 94.1547 19.0213C93.8529 18.4176 93.4208 17.9412 92.8586 17.592C92.3022 17.2428 91.6453 17.0682 90.8877 17.0682C90.0532 17.0682 89.3311 17.2753 88.7215 17.6896C88.1178 18.098 87.6532 18.6307 87.3277 19.2876C87.0022 19.9446 86.8394 20.6489 86.8394 21.4006V22.608C86.8394 23.6378 87.017 24.5108 87.3721 25.2269C87.7331 25.9371 88.2332 26.4787 88.8724 26.8516C89.5116 27.2185 90.2544 27.402 91.1008 27.402C91.6512 27.402 92.1483 27.325 92.5922 27.1712C93.0421 27.0114 93.4297 26.7746 93.7552 26.4609C94.0808 26.1413 94.3323 25.7448 94.5099 25.2713L96.534 25.8395C96.3209 26.526 95.9629 27.1297 95.4598 27.6506C94.9567 28.1655 94.3353 28.5679 93.5954 28.858C92.8556 29.142 92.0241 29.2841 91.1008 29.2841ZM105.652 29.2841C104.338 29.2841 103.204 28.9941 102.251 28.4141C101.304 27.8281 100.573 27.0114 100.059 25.9638C99.5495 24.9103 99.295 23.6851 99.295 22.2884C99.295 20.8916 99.5495 19.6605 100.059 18.5952C100.573 17.5239 101.29 16.6894 102.207 16.0916C103.13 15.4879 104.207 15.1861 105.438 15.1861C106.149 15.1861 106.85 15.3045 107.543 15.5412C108.235 15.7779 108.865 16.1626 109.434 16.6953C110.002 17.2221 110.454 17.9205 110.792 18.7905C111.129 19.6605 111.298 20.7318 111.298 22.0043V22.892H100.786V21.081H109.167C109.167 20.3116 109.013 19.625 108.706 19.0213C108.404 18.4176 107.972 17.9412 107.409 17.592C106.853 17.2428 106.196 17.0682 105.438 17.0682C104.604 17.0682 103.882 17.2753 103.272 17.6896C102.669 18.098 102.204 18.6307 101.878 19.2876C101.553 19.9446 101.39 20.6489 101.39 21.4006V22.608C101.39 23.6378 101.568 24.5108 101.923 25.2269C102.284 25.9371 102.784 26.4787 103.423 26.8516C104.062 27.2185 104.805 27.402 105.652 27.402C106.202 27.402 106.699 27.325 107.143 27.1712C107.593 27.0114 107.98 26.7746 108.306 26.4609C108.632 26.1413 108.883 25.7448 109.061 25.2713L111.085 25.8395C110.872 26.526 110.514 27.1297 110.011 27.6506C109.507 28.1655 108.886 28.5679 108.146 28.858C107.406 29.142 106.575 29.2841 105.652 29.2841ZM116.58 20.7969V29H114.485V15.3636H116.509V17.4943H116.687C117.006 16.8018 117.492 16.2455 118.143 15.8253C118.794 15.3991 119.634 15.1861 120.664 15.1861C121.587 15.1861 122.395 15.3755 123.088 15.7543C123.78 16.1271 124.319 16.6953 124.703 17.4588C125.088 18.2164 125.28 19.1752 125.28 20.3352V29H123.185V20.4773C123.185 19.406 122.907 18.5715 122.351 17.9737C121.794 17.37 121.031 17.0682 120.06 17.0682C119.391 17.0682 118.794 17.2132 118.267 17.5032C117.746 17.7932 117.335 18.2164 117.033 18.7727C116.731 19.3291 116.58 20.0038 116.58 20.7969ZM134.826 29.2841C133.512 29.2841 132.379 28.9941 131.426 28.4141C130.479 27.8281 129.748 27.0114 129.233 25.9638C128.724 24.9103 128.47 23.6851 128.47 22.2884C128.47 20.8916 128.724 19.6605 129.233 18.5952C129.748 17.5239 130.464 16.6894 131.382 16.0916C132.305 15.4879 133.382 15.1861 134.613 15.1861C135.324 15.1861 136.025 15.3045 136.717 15.5412C137.41 15.7779 138.04 16.1626 138.608 16.6953C139.176 17.2221 139.629 17.9205 139.967 18.7905C140.304 19.6605 140.473 20.7318 140.473 22.0043V22.892H129.961V21.081H138.342C138.342 20.3116 138.188 19.625 137.88 19.0213C137.578 18.4176 137.146 17.9412 136.584 17.592C136.028 17.2428 135.371 17.0682 134.613 17.0682C133.779 17.0682 133.057 17.2753 132.447 17.6896C131.843 18.098 131.379 18.6307 131.053 19.2876C130.728 19.9446 130.565 20.6489 130.565 21.4006V22.608C130.565 23.6378 130.743 24.5108 131.098 25.2269C131.459 25.9371 131.959 26.4787 132.598 26.8516C133.237 27.2185 133.98 27.402 134.826 27.402C135.377 27.402 135.874 27.325 136.318 27.1712C136.768 27.0114 137.155 26.7746 137.481 26.4609C137.806 26.1413 138.058 25.7448 138.235 25.2713L140.26 25.8395C140.047 26.526 139.688 27.1297 139.185 27.6506C138.682 28.1655 138.061 28.5679 137.321 28.858C136.581 29.142 135.75 29.2841 134.826 29.2841ZM143.66 29V15.3636H145.684V17.4233H145.826C146.075 16.7486 146.524 16.2011 147.175 15.7809C147.826 15.3607 148.56 15.1506 149.377 15.1506C149.531 15.1506 149.723 15.1535 149.954 15.1594C150.185 15.1654 150.36 15.1742 150.478 15.1861V17.3168C150.407 17.299 150.244 17.2724 149.99 17.2369C149.741 17.1954 149.478 17.1747 149.2 17.1747C148.537 17.1747 147.945 17.3138 147.424 17.592C146.909 17.8642 146.501 18.243 146.199 18.7283C145.903 19.2077 145.755 19.7552 145.755 20.3707V29H143.66ZM162.372 29V30.9531H151.008V29H162.372Z" fill="#F3FAF7"/>
<path d="M42.0939 37.2479C40.9382 37.2939 39.8426 37.1564 38.8071 36.8354C37.7708 36.5153 36.8164 36.0419 35.944 35.4152L34.2782 37.1868C34.0602 37.4228 33.7758 37.5478 33.4249 37.5618C33.0741 37.5757 32.7807 37.4737 32.5446 37.2557C32.3086 37.0378 32.1836 36.7534 32.1696 36.4025C32.1557 36.0517 32.2577 35.7582 32.4756 35.5222L34.1105 33.7519C33.4164 32.932 32.8685 32.0133 32.4667 30.9958C32.0641 29.9783 31.8398 28.8917 31.7938 27.736C31.6838 24.9706 32.5502 22.59 34.3931 20.5944C36.2361 18.5987 38.5402 17.5459 41.3057 17.4358L51.2117 17.0417L51.6058 26.9477C51.7159 29.7131 50.8494 32.0937 49.0065 34.0893C47.1635 36.085 44.8594 37.1378 42.0939 37.2479ZM41.9954 34.7714C44.0592 34.6893 45.7846 33.8971 47.1718 32.395C48.5589 30.8929 49.2114 29.11 49.1293 27.0463L48.8337 19.6167L41.4042 19.9123C39.3405 19.9945 37.615 20.7866 36.2279 22.2887C34.8407 23.7908 34.1882 25.5737 34.2703 27.6375C34.3023 28.4423 34.4567 29.2063 34.7336 29.9295C35.0103 30.6519 35.3773 31.3037 35.8345 31.885L41.9875 25.222C42.2055 24.986 42.4899 24.861 42.8408 24.847C43.1916 24.8331 43.485 24.9351 43.7211 25.1531C43.9786 25.3909 44.1141 25.6798 44.1276 26.0199C44.1412 26.3609 44.0291 26.6601 43.7913 26.9176L37.6383 33.5805C38.254 33.9901 38.9327 34.2987 39.6744 34.5065C40.4169 34.7151 41.1905 34.8034 41.9954 34.7714Z" fill="#3C9E7A"/>
<path d="M41.9954 34.7714C44.0592 34.6893 45.7846 33.8971 47.1718 32.395C48.5589 30.8929 49.2114 29.11 49.1293 27.0463L48.8337 19.6167L41.4042 19.9123C39.3405 19.9945 37.615 20.7866 36.2279 22.2887C34.8407 23.7908 34.1882 25.5737 34.2703 27.6375C34.3023 28.4423 34.4567 29.2063 34.7336 29.9295C35.0103 30.6519 35.3773 31.3037 35.8345 31.885L41.9875 25.222C42.2055 24.986 42.4899 24.861 42.8408 24.847C43.1916 24.8331 43.485 24.9351 43.7211 25.1531C43.9786 25.3909 44.1141 25.6798 44.1276 26.0199C44.1412 26.3609 44.0291 26.6601 43.7913 26.9176L37.6383 33.5805C38.254 33.9901 38.9327 34.2987 39.6744 34.5065C40.4169 34.7151 41.1905 34.8034 41.9954 34.7714Z" fill="#6AB599"/>
<path d="M39.7182 14.8766C36.8694 7.0139 29.2649 2 21.144 2C10.5711 2 2 10.5711 2 21.144C2 31.7169 10.5711 40.288 21.144 40.288C26.6189 40.288 31.557 37.9898 35.0462 34.3054" stroke="#3C9E7A" stroke-width="3.41857" stroke-linecap="round" stroke-linejoin="round"/>
<path d="M16.7879 27.0087C16.5632 27.0089 16.3461 26.9276 16.1772 26.7799L10.5213 21.8522C10.4218 21.7654 10.3421 21.6586 10.2875 21.5387C10.2328 21.4188 10.2046 21.2886 10.2046 21.157C10.2046 21.0254 10.2328 20.8952 10.2875 20.7753C10.3421 20.6554 10.4218 20.5486 10.5213 20.4618L16.1772 15.5341C16.3624 15.3727 16.6045 15.2912 16.85 15.3075C17.0956 15.3238 17.3246 15.4366 17.4867 15.621C17.6488 15.8054 17.7306 16.0464 17.7143 16.2909C17.6979 16.5355 17.5847 16.7635 17.3994 16.9249L12.5411 21.157L17.399 25.3891C17.5412 25.5129 17.642 25.6769 17.6881 25.8593C17.7342 26.0416 17.7233 26.2337 17.6569 26.4097C17.5905 26.5857 17.4717 26.7374 17.3164 26.8444C17.1611 26.9514 16.9767 27.0087 16.7879 27.0087ZM25.2718 27.0087C25.0829 27.0088 24.8985 26.9516 24.7431 26.8446C24.5878 26.7376 24.4689 26.5859 24.4024 26.4099C24.336 26.2338 24.325 26.0418 24.3711 25.8594C24.4172 25.677 24.518 25.5129 24.6603 25.3891L29.5186 21.157L24.6607 16.9249C24.4755 16.7635 24.3622 16.5355 24.3459 16.2909C24.3295 16.0464 24.4113 15.8054 24.5734 15.621C24.7355 15.4366 24.9645 15.3238 25.2101 15.3075C25.4557 15.2912 25.6977 15.3727 25.8829 15.5341L31.5389 20.4618C31.6383 20.5486 31.718 20.6554 31.7727 20.7753C31.8273 20.8952 31.8555 21.0254 31.8555 21.157C31.8555 21.2886 31.8273 21.4188 31.7727 21.5387C31.718 21.6586 31.6383 21.7654 31.5389 21.8522L25.8829 26.7799C25.714 26.9277 25.4967 27.0091 25.2718 27.0087ZM18.9089 29.1206C18.7644 29.1205 18.6219 29.0869 18.4927 29.0223C18.3636 28.9578 18.2514 28.8641 18.165 28.7487C18.0787 28.6333 18.0206 28.4995 17.9954 28.3578C17.9702 28.2161 17.9785 28.0705 18.0198 27.9326L20.1408 20.893L22.2618 13.8534C22.2937 13.7339 22.3494 13.6221 22.4256 13.5244C22.5018 13.4268 22.5968 13.3453 22.7052 13.285C22.8135 13.2246 22.933 13.1864 23.0564 13.1728C23.1798 13.1592 23.3047 13.1704 23.4237 13.2058C23.5427 13.2411 23.6533 13.2999 23.7491 13.3786C23.8449 13.4573 23.9238 13.5543 23.9812 13.6639C24.0386 13.7736 24.0734 13.8935 24.0834 14.0168C24.0934 14.14 24.0784 14.264 24.0394 14.3814L19.7975 28.4606C19.7404 28.6512 19.6231 28.8183 19.463 28.9372C19.3029 29.0561 19.1086 29.1204 18.9089 29.1206Z" fill="#6AB599"/>
</g>
<defs>
<clipPath id="clip0_139_10">
<rect width="163" height="42" fill="white"/>
</clipPath>
</defs>
</svg>
